<svg width="84" height="83" viewBox="0 0 84 83" fill="none" xmlns="http://www.w3.org/2000/svg">
<ellipse cx="42" cy="47.5" rx="42" ry="35.5" fill="#A5F53F"/>
<path d="M26 9.5L37 13L43 9.5L46.5 12L58.5 9.5L50 14.5L57 20L47.5 17.5L46.5 24.5L43 17.5L36 24.5L38.5 17.5L26 20L32.5 15.5L26 9.5Z" fill="#5F8652" stroke="#5F8652"/>
<path d="M39 6.87097L41.25 14H43.5L42.75 7.70968L45 3.51613L42.75 1L39 6.87097Z" fill="#496D3C" stroke="#496D3C"/>
<path d="M41.5 29C30.1754 29 21 38.1754 21 49.5C21 60.8246 30.1754 70 41.5 70C52.8246 70 62 60.8246 62 49.5C62 38.1754 52.8246 29 41.5 29ZM46.22 57.9397L38.9292 52.6411C38.673 52.451 38.5242 52.1534 38.5242 51.8393V37.9274C38.5242 37.3819 38.9706 36.9355 39.5161 36.9355H43.4839C44.0294 36.9355 44.4758 37.3819 44.4758 37.9274V49.3099L49.7248 53.1288C50.1712 53.4512 50.2621 54.0712 49.9397 54.5175L47.6087 57.7248C47.2863 58.1629 46.6663 58.2621 46.22 57.9397Z" fill="#344D2C"/>
</svg>
